{
  "source": "C:\\Users\\Peter\\Desktop\\stuff\\MIUN\\quantitative_research\\video_compression\\videos\\BVI-HD\\BVI-HD_CDVL_videos\\ORIG\\KineticFastPainting_1920x1080_60fps.mp4",
  "output": "C:\\Users\\Peter\\Desktop\\stuff\\MIUN\\quantitative_research\\video_compression\\compressed_videos\\BVI-HD\\h264\\1\\KineticFastPainting_1920x1080_60fps_h264.mp4",
  "codec": "h264",
  "ok": "Input #0, mov,mp4,m4a,3gp,3g2,mj2, from 'C:\\Users\\Peter\\Desktop\\stuff\\MIUN\\quantitative_research\\video_compression\\videos\\BVI-HD\\BVI-HD_CDVL_videos\\ORIG\\KineticFastPainting_1920x1080_60fps.mp4':\n  Metadata:\n    major_brand     : isom\n    minor_version   : 512\n    compatible_brands: isomiso2avc1mp41\n    encoder         : Lavf54.28.101\n  Duration: 00:00:05.00, start: 0.000000, bitrate: 477980 kb/s\n  Stream #0:0[0x1](und): Video: h264 (High 4:4:4 Predictive) (avc1 / 0x31637661), yuv420p(progressive), 1920x1080, 477974 kb/s, 60 fps, 60 tbr, 60 tbn (default)\n    Metadata:\n      handler_name    : VideoHandler\n      vendor_id       : [0][0][0][0]\n[out#0/mp4 @ 0000028092069cc0] Codec AVOption b:a (set bitrate (in bits/s)) has not been used for any stream. The most likely reason is either wrong type (e.g. a video option with no video streams) or that it is a private option of some decoder which was not actually used for any stream.\nStream mapping:\n  Stream #0:0 -> #0:0 (h264 (native) -> h264 (libx264))\nPress [q] to stop, [?] for help\n[libx264 @ 000002809207bc80] using cpu capabilities: MMX2 SSE2Fast SSSE3 SSE4.2 AVX FMA3 BMI2 AVX2\n[libx264 @ 000002809207bc80] profile High, level 5.0, 4:2:0, 8-bit\n[libx264 @ 000002809207bc80] 264 - core 165 r3222 b35605a - H.264/MPEG-4 AVC codec - Copyleft 2003-2025 - http://www.videolan.org/x264.html - options: cabac=1 ref=5 deblock=1:0:0 analyse=0x3:0x113 me=hex subme=8 psy=1 psy_rd=1.00:0.00 mixed_ref=1 me_range=16 chroma_me=1 trellis=2 8x8dct=1 cqm=0 deadzone=21,11 fast_pskip=1 chroma_qp_offset=-2 threads=18 lookahead_threads=3 sliced_threads=0 nr=0 decimate=1 interlaced=0 bluray_compat=0 constrained_intra=0 bframes=3 b_pyramid=2 b_adapt=1 b_bias=0 direct=3 weightb=1 open_gop=0 weightp=2 keyint=250 keyint_min=25 scenecut=40 intra_refresh=0 rc_lookahead=50 rc=cbr mbtree=1 bitrate=1000 ratetol=1.0 qcomp=0.60 qpmin=0 qpmax=69 qpstep=4 vbv_maxrate=1000 vbv_bufsize=1000 nal_hrd=none filler=0 ip_ratio=1.40 aq=1:1.00\nOutput #0, mp4, to 'C:\\Users\\Peter\\Desktop\\stuff\\MIUN\\quantitative_research\\video_compression\\compressed_videos\\BVI-HD\\h264\\1\\KineticFastPainting_1920x1080_60fps_h264.mp4':\n  Metadata:\n    major_brand     : isom\n    minor_version   : 512\n    compatible_brands: isomiso2avc1mp41\n    encoder         : Lavf62.3.100\n  Stream #0:0(und): Video: h264 (avc1 / 0x31637661), yuv420p(tv, progressive), 1920x1080, q=2-31, 1000 kb/s, 60 fps, 15360 tbn (default)\n    Metadata:\n      encoder         : Lavc62.11.100 libx264\n      handler_name    : VideoHandler\n      vendor_id       : [0][0][0][0]\n    Side data:\n      cpb: bitrate max/min/avg: 1000000/0/1000000 buffer size: 1000000 vbv_delay: N/A\nframe=    0 fps=0.0 q=0.0 size=       0KiB time=N/A bitrate=N/A speed=N/A elapsed=0:00:00.53    \nframe=    0 fps=0.0 q=0.0 size=       0KiB time=N/A bitrate=N/A speed=N/A elapsed=0:00:01.06    \nframe=    0 fps=0.0 q=0.0 size=       0KiB time=N/A bitrate=N/A speed=N/A elapsed=0:00:01.63    \nframe=   16 fps=7.2 q=61.0 size=       0KiB time=00:00:00.16 bitrate=   2.3kbits/s speed=0.0754x elapsed=0:00:02.20    \nframe=   36 fps= 13 q=61.0 size=       0KiB time=00:00:00.53 bitrate=   0.7kbits/s speed=0.187x elapsed=0:00:02.84    \nframe=   57 fps= 17 q=62.0 size=       0KiB time=00:00:00.90 bitrate=   0.4kbits/s speed=0.263x elapsed=0:00:03.42    \nframe=   85 fps= 21 q=62.0 size=       0KiB time=00:00:01.31 bitrate=   0.3kbits/s speed=0.332x elapsed=0:00:03.96    \nframe=  112 fps= 25 q=59.0 size=       0KiB time=00:00:01.78 bitrate=   0.2kbits/s speed=0.393x elapsed=0:00:04.53    \nframe=  137 fps= 27 q=61.0 size=     256KiB time=00:00:02.18 bitrate= 960.7kbits/s speed=0.427x elapsed=0:00:05.11    \nframe=  155 fps= 27 q=61.0 size=     256KiB time=00:00:02.48 bitrate= 844.6kbits/s speed=0.43x elapsed=0:00:05.77    \nframe=  175 fps= 28 q=61.0 size=     256KiB time=00:00:02.81 bitrate= 744.7kbits/s speed=0.444x elapsed=0:00:06.33    \nframe=  200 fps= 29 q=61.0 size=     256KiB time=00:00:03.30 bitrate= 635.6kbits/s speed=0.479x elapsed=0:00:06.89    \nframe=  226 fps= 30 q=61.0 size=     256KiB time=00:00:03.71 bitrate= 564.4kbits/s speed=0.499x elapsed=0:00:07.44    \nframe=  272 fps= 34 q=61.0 size=     512KiB time=00:00:04.50 bitrate= 932.2kbits/s speed=0.565x elapsed=0:00:07.96    \n[mp4 @ 000002809207a600] Starting second pass: moving the moov atom to the beginning of the file\n[out#0/mp4 @ 0000028092069cc0] video:647KiB audio:0KiB subtitle:0KiB other streams:0KiB global headers:0KiB muxing overhead: 0.515497%\nframe=  300 fps= 36 q=-1.0 Lsize=     650KiB time=00:00:04.96 bitrate=1072.6kbits/s speed=0.603x elapsed=0:00:08.23    \n[libx264 @ 000002809207bc80] frame I:2     Avg QP:50.19  size:  9358\n[libx264 @ 000002809207bc80] frame P:210   Avg QP:51.00  size:  2844\n[libx264 @ 000002809207bc80] frame B:88    Avg QP:51.00  size:   520\n[libx264 @ 000002809207bc80] consecutive B-frames: 50.7% 30.0%  2.0% 17.3%\n[libx264 @ 000002809207bc80] mb I  I16..4: 75.1% 24.9%  0.0%\n[libx264 @ 000002809207bc80] mb P  I16..4: 10.2% 12.8%  0.0%  P16..4:  6.5%  0.1%  0.5%  0.0%  0.0%    skip:69.9%\n[libx264 @ 000002809207bc80] mb B  I16..4:  0.0%  0.0%  0.0%  B16..8:  4.0%  0.0%  0.0%  direct: 0.9%  skip:95.0%  L0:38.7% L1:60.9% BI: 0.4%\n[libx264 @ 000002809207bc80] 8x8 transform intra:54.4% inter:98.0%\n[libx264 @ 000002809207bc80] direct mvs  spatial:88.6% temporal:11.4%\n[libx264 @ 000002809207bc80] coded y,uvDC,uvAC intra: 0.7% 33.1% 0.0% inter: 0.0% 1.7% 0.0%\n[libx264 @ 000002809207bc80] i16 v,h,dc,p: 75% 19%  3%  3%\n[libx264 @ 000002809207bc80] i8 v,h,dc,ddl,ddr,vr,hd,vl,hu:  0%  0% 98%  0%  0%  0%  0%  0%  0%\n[libx264 @ 000002809207bc80] i4 v,h,dc,ddl,ddr,vr,hd,vl,hu: 50%  0%  3% 28%  6%  3%  0%  6%  3%\n[libx264 @ 000002809207bc80] i8c dc,h,v,p: 96%  2%  2%  0%\n[libx264 @ 000002809207bc80] Weighted P-Frames: Y:32.9% UV:14.8%\n[libx264 @ 000002809207bc80] ref P L0: 42.0%  0.4% 19.4% 11.5% 12.8% 11.3%  2.7%\n[libx264 @ 000002809207bc80] ref B L0: 61.0% 20.1% 16.6%  2.3%\n[libx264 @ 000002809207bc80] ref B L1: 89.6% 10.4%\n[libx264 @ 000002809207bc80] kb/s:1058.73\n",
  "seconds": 8.504724502563477,
  "probe_out": {}
}